<svg id='icon' width="11.666504" height="10.333336" viewBox="0 0 11.6665 10.3333" fill="none" xmlns="http://www.w3.org/2000/svg" xmlns:xlink="http://www.w3.org/1999/xlink">
	<desc>
			Created with Pixso.
	</desc>
	<defs/>
	<path id="Vector" d="M1.16 0.5C0.98 0.5 0.82 0.57 0.69 0.69C0.57 0.82 0.5 0.98 0.5 1.16L0.5 9.16C0.5 9.34 0.57 9.51 0.69 9.63C0.82 9.76 0.98 9.83 1.16 9.83C1.34 9.83 1.51 9.76 1.63 9.63C1.76 9.51 1.83 9.34 1.83 9.16L1.83 1.16C1.83 0.98 1.76 0.82 1.63 0.69C1.51 0.57 1.34 0.5 1.16 0.5ZM8.02 6.69C7.9 6.82 7.84 6.98 7.84 7.16C7.84 7.33 7.91 7.5 8.03 7.62C8.16 7.75 8.32 7.82 8.5 7.82C8.67 7.82 8.84 7.75 8.97 7.63L10.97 5.63C11.09 5.51 11.16 5.34 11.16 5.16C11.16 4.98 11.09 4.82 10.97 4.69L8.97 2.69C8.9 2.63 8.83 2.58 8.75 2.54C8.67 2.51 8.58 2.49 8.49 2.49C8.4 2.49 8.32 2.5 8.23 2.54C8.15 2.57 8.08 2.62 8.02 2.68C7.95 2.74 7.9 2.82 7.87 2.9C7.84 2.98 7.82 3.07 7.82 3.16C7.82 3.25 7.84 3.34 7.87 3.42C7.91 3.5 7.96 3.57 8.02 3.63L8.89 4.5L3.83 4.5C3.65 4.5 3.48 4.57 3.36 4.69C3.23 4.82 3.16 4.98 3.16 5.16C3.16 5.34 3.23 5.51 3.36 5.63C3.48 5.76 3.65 5.83 3.83 5.83L8.89 5.83L8.02 6.69Z" fill="#252C32" fill-opacity="1.000000" fill-rule="evenodd"/>
	<path id="Vector" d="M0.69 0.69C0.57 0.82 0.5 0.98 0.5 1.16L0.5 9.16C0.5 9.34 0.57 9.51 0.69 9.63C0.82 9.76 0.98 9.83 1.16 9.83C1.34 9.83 1.51 9.76 1.63 9.63C1.76 9.51 1.83 9.34 1.83 9.16L1.83 1.16C1.83 0.98 1.76 0.82 1.63 0.69C1.51 0.57 1.34 0.5 1.16 0.5C0.98 0.5 0.82 0.57 0.69 0.69ZM7.84 7.16C7.84 7.33 7.91 7.5 8.03 7.62C8.16 7.75 8.32 7.82 8.5 7.82C8.67 7.82 8.84 7.75 8.97 7.63L10.97 5.63C11.09 5.51 11.16 5.34 11.16 5.16C11.16 4.98 11.09 4.82 10.97 4.69L8.97 2.69C8.9 2.63 8.83 2.58 8.75 2.54C8.67 2.51 8.58 2.49 8.49 2.49C8.4 2.49 8.32 2.5 8.23 2.54C8.15 2.57 8.08 2.62 8.02 2.68C7.95 2.74 7.9 2.82 7.87 2.9C7.84 2.98 7.82 3.07 7.82 3.16C7.82 3.25 7.84 3.34 7.87 3.42C7.91 3.5 7.96 3.57 8.02 3.63L8.89 4.5L3.83 4.5C3.65 4.5 3.48 4.57 3.36 4.69C3.23 4.82 3.16 4.98 3.16 5.16C3.16 5.34 3.23 5.51 3.36 5.63C3.48 5.76 3.65 5.83 3.83 5.83L8.89 5.83L8.02 6.69C7.9 6.82 7.84 6.98 7.84 7.16Z" stroke="#0E73F6" stroke-opacity="1.000000" stroke-width="1.000000"/>
</svg>
